<svg xmlns="http://www.w3.org/2000/svg" width="1200" height="630" viewBox="0 0 1200 630" role="img" aria-labelledby="title desc" lang="en-US">
<!-- Self-contained editorial cover; conceptual document art is not a sample legal certificate. -->
<title id="title">Power of Attorney for Mainland China: Signing in the U.S. and Getting an Apostille</title><desc id="desc">Concept: a power of attorney and a separate Apostille certificate; authentication does not supply missing powers.</desc>
<rect width="1200" height="630" fill="#faf9f5"/>
<path d="M0 562H1200" stroke="#e8e6dc" stroke-width="2"/>
<path d="M64 100H108" stroke="#d97757" stroke-width="6"/>
<text x="125" y="108" font-family="Arial, PingFang SC, Microsoft YaHei, sans-serif" font-size="21" letter-spacing="2" fill="#55554f">DOCUMENT GUIDES</text>
<text font-family="Georgia, Songti SC, SimSun, serif" font-weight="600" font-size="39" fill="#141413"><tspan x="64" y="191">Power of Attorney for</tspan><tspan x="64" y="248">Mainland China: Signing</tspan><tspan x="64" y="305">in the U.S. and Getting</tspan><tspan x="64" y="362">an Apostille</tspan></text>
<text x="64" y="472" font-family="Arial, PingFang SC, Microsoft YaHei, sans-serif" font-size="23" fill="#55554f">California example · Confirm the powers first</text>
<g transform="translate(812 159) rotate(-7 73 93)"><rect width="146" height="186" rx="7" fill="#faf9f5" stroke="#141413" stroke-width="3"/><path d="M25 44H120M25 66H113M25 88H119M25 110H85" stroke="#b0aea5" stroke-width="4"/><path d="M27 150Q47 131 61 151T113 147" fill="none" stroke="#d97757" stroke-width="4"/></g><g transform="translate(934 273)"><rect width="151" height="169" rx="7" fill="#e8e6dc" stroke="#141413" stroke-width="3"/><path d="M25 36H126M25 60H110" stroke="#b0aea5" stroke-width="4"/><circle cx="76" cy="111" r="25" fill="#d97757"/><path d="M57 128l-4 24 23-11 24 11-5-24" fill="none" stroke="#141413" stroke-width="3"/></g><path d="M872 398H921" stroke="#788c5d" stroke-width="4"/><path d="m912 389 10 9-10 9" fill="none" stroke="#788c5d" stroke-width="4"/>
<text x="64" y="603" font-family="Arial, sans-serif" font-size="23" fill="#141413">Notary Zhou</text>
<text x="230" y="603" font-family="Arial, sans-serif" font-size="21" fill="#a3452c">notaryzhou.com</text>
</svg>